# Blender 5.0.1
# www.blender.org
mtllib tonar_napolnitel.mtl
o Cube
v 0.000000 1.259719 4.804359
v -1.100552 2.557915 4.355052
v 0.000000 1.259719 -4.598582
v -1.100552 2.557915 -4.598582
v -0.330804 1.260749 4.803992
v -0.677328 1.371166 4.765489
v -0.873526 1.532511 4.709336
v -1.057933 1.782086 4.622841
v -1.158827 2.006705 4.545279
v -1.158827 2.006705 -4.598582
v -1.057933 1.782086 -4.598582
v -0.873526 1.532511 -4.598582
v -0.677328 1.371166 -4.598582
v -0.330804 1.260749 -4.598582
v -1.158781 2.424661 4.401022
v -1.158781 2.424661 -4.598582
v -1.100552 3.943759 3.877134
v -1.100552 3.943759 -4.598582
v 0.000000 3.943759 3.877134
v 0.000000 3.943759 -4.598582
v 1.100552 2.557915 4.355052
v 1.100552 2.557915 -4.598582
v 0.330804 1.260749 4.803992
v 0.677328 1.371166 4.765489
v 0.873526 1.532511 4.709336
v 1.057933 1.782086 4.622841
v 1.158827 2.006705 4.545279
v 1.158827 2.006705 -4.598582
v 1.057933 1.782086 -4.598582
v 0.873526 1.532511 -4.598582
v 0.677328 1.371166 -4.598582
v 0.330804 1.260749 -4.598582
v 1.158781 2.424661 4.401022
v 1.158781 2.424661 -4.598582
v 1.100552 3.943759 3.877134
v 1.100552 3.943759 -4.598582
vn -0.9163 0.4004 -0.0000
vn -0.0031 -1.0000 -0.0000
vn -0.3036 -0.9528 -0.0000
vn -0.6352 -0.7724 -0.0000
vn -0.8043 -0.5943 -0.0000
vn -0.9122 -0.4097 -0.0000
vn -1.0000 0.0001 -0.0000
vn -1.0000 -0.0000 -0.0000
vn -0.0000 1.0000 -0.0000
vn -0.0006 0.3264 0.9452
vn -0.0000 -0.0000 -1.0000
vn 0.9163 0.4004 -0.0000
vn 0.0031 -1.0000 -0.0000
vn 0.3036 -0.9528 -0.0000
vn 0.6352 -0.7724 -0.0000
vn 0.8043 -0.5943 -0.0000
vn 0.9122 -0.4097 -0.0000
vn 1.0000 0.0001 -0.0000
vn 1.0000 -0.0000 -0.0000
vn 0.0006 0.3264 0.9452
vt 0.604167 0.000000
vt 0.625000 0.000000
vt 0.625000 0.250000
vt 0.604167 0.250000
vt 0.375000 0.000000
vt 0.416667 0.000000
vt 0.416667 0.250000
vt 0.375000 0.250000
vt 0.458333 0.000000
vt 0.458333 0.250000
vt 0.500000 0.000000
vt 0.500000 0.250000
vt 0.541667 0.000000
vt 0.541667 0.250000
vt 0.583333 0.000000
vt 0.583333 0.250000
s 0
f 15/1/1 2/2/1 4/3/1 16/4/1
f 1/5/2 5/6/2 14/7/2 3/8/2
f 5/6/3 6/9/3 13/10/3 14/7/3
f 6/9/4 7/11/4 12/12/4 13/10/4
f 7/11/5 8/13/5 11/14/5 12/12/5
f 8/13/6 9/15/6 10/16/6 11/14/6
f 9/15/7 15/1/7 16/4/7 10/16/7
f 4/3/8 2/2/8 17/2/8 18/3/8
f 18/3/9 17/2/9 19/2/9 20/3/9
f 15/1/10 9/15/10 8/13/10 7/11/10 6/9/10 5/6/10 1/5/10 19/2/10 17/2/10 2/2/10
f 14/7/11 13/10/11 12/12/11 11/14/11 10/16/11 16/4/11 4/3/11 18/3/11 20/3/11 3/8/11
f 33/1/12 34/4/12 22/3/12 21/2/12
f 1/5/13 3/8/13 32/7/13 23/6/13
f 23/6/14 32/7/14 31/10/14 24/9/14
f 24/9/15 31/10/15 30/12/15 25/11/15
f 25/11/16 30/12/16 29/14/16 26/13/16
f 26/13/17 29/14/17 28/16/17 27/15/17
f 27/15/18 28/16/18 34/4/18 33/1/18
f 22/3/19 36/3/19 35/2/19 21/2/19
f 36/3/9 20/3/9 19/2/9 35/2/9
f 33/1/20 21/2/20 35/2/20 19/2/20 1/5/20 23/6/20 24/9/20 25/11/20 26/13/20 27/15/20
f 32/7/11 3/8/11 20/3/11 36/3/11 22/3/11 34/4/11 28/16/11 29/14/11 30/12/11 31/10/11
